<svg width="416" height="166" viewBox="0 0 416 166" fill="none" xmlns="http://www.w3.org/2000/svg">
    <path d="M114.766 21.139L108.852 20.366L90.2613 155.335C77.9702 159.51 66.4136 159.162 66.4136 159.162C66.4136 159.162 42.9524 158.466 31.2411 146.446C19.5685 134.425 16.9403 129.169 13.0365 115.989L0.320312 11.2057L26.2165 9.46639L29.8884 34.0871L39.9763 33.5073L37.5799 7.959L112.563 0.306091L114.766 21.139Z" fill="#FFA23B"/>
    <path d="M185.382 87.4642C178.27 76.6806 174.714 52.9875 182.869 36.7154C183.14 36.1743 183.449 35.6332 183.72 35.0921C173.825 28.8306 163.582 27.4778 163.582 27.4778L114.766 21.139L122.149 90.4403C122.149 90.4403 124.777 110.809 121.685 120.897C118.593 130.985 115.964 141.382 100.736 150.543C97.3345 152.591 93.7787 154.137 90.2228 155.335L89.6816 159.394L144.489 165.694L151.021 118.965C175.757 123.1 188.474 109.109 188.474 109.109C188.474 109.109 192.223 105.63 195.74 98.5957C191.102 94.9625 187.778 91.0588 185.382 87.4642ZM151.833 95.8129L155.852 69.9167C155.852 69.9167 168.298 72.0425 168.8 81.7825C169.225 90.8269 165.708 96.5086 151.833 95.8129Z" fill="#E84DA9"/>
    <path d="M121.723 120.897C118.631 130.985 116.003 141.382 100.774 150.543C97.3728 152.591 93.8169 154.137 90.261 155.335L108.852 20.3659L114.766 21.139L122.148 90.4403C122.187 90.4403 124.815 110.809 121.723 120.897Z" fill="#F68253"/>
    <path d="M255.649 76.6033L252.635 76.1781L258.741 51.596L272.192 53.0648C269.757 40.6578 264.384 25.4293 252.519 17.158C252.519 17.158 246.45 10.6646 229.946 10.6646C213.056 10.6646 204.321 15.6119 204.321 15.6119C204.321 15.6119 191.875 20.1341 183.72 35.092C192.068 40.3872 200.146 49.1997 201.577 63.6938C203.161 79.4248 199.567 91.0588 195.74 98.5957C204.9 105.823 219.085 112.24 240.923 114.133L254.644 114.713L262.606 97.5135L230.758 82.0144L255.649 76.6033ZM228.323 47.1898C238.102 47.1898 241.271 58.36 241.271 58.36L216.805 65.3172C214.525 53.6059 218.544 47.1898 228.323 47.1898Z" fill="#636FFF"/>
    <path d="M195.74 98.5957C191.102 94.9238 187.778 91.0587 185.381 87.4642C178.27 76.6805 174.714 52.9874 182.869 36.7154C183.14 36.1742 183.449 35.6331 183.719 35.092C192.068 40.3872 200.146 49.1996 201.576 63.6938C203.161 79.4248 199.566 91.0587 195.74 98.5957Z" fill="#DE48FD"/>
    <path d="M274.202 72.5836L255.649 76.6033L252.634 76.1781L258.741 51.596L272.192 53.0648C274.318 63.9257 274.202 72.5836 274.202 72.5836Z" fill="#5CC8FD"/>
    <path d="M313.625 84.8746L308.562 122.675L332.951 126.966C332.951 126.966 329.781 161.404 295.343 161.326C260.905 161.249 258.238 136.165 258.238 136.165C258.238 136.165 257.311 126.386 259.514 115.216C261.756 104.045 266.394 78.1106 266.394 78.1106L255.649 76.6419L274.201 72.6222C274.201 72.6222 274.317 63.9644 272.191 53.1034H272.23L276.366 30.9564L321.781 37.5657L318.341 61.9545L326.148 63.3073C325.375 74.7866 331.791 83.058 336.816 87.6961L336.777 87.8893L313.625 84.8746Z" fill="#4DE8AF"/>
    <path d="M340.063 65.7423L336.816 87.6961C331.792 83.058 325.337 74.7867 326.149 63.3073L340.063 65.7423Z" fill="#99FE96"/>
    <path d="M403.799 127.893C403.799 127.893 393.788 135.971 370.52 136.319C347.252 136.667 331.985 118.772 327.849 106.635L342.537 92.0637C342.537 92.0637 339.986 90.595 336.855 87.6961L340.102 65.7423L326.187 63.3073C326.226 62.9981 326.226 62.6889 326.265 62.3797C328.197 43.2474 347.445 36.8313 355.485 36.4835C363.486 36.1356 391.778 31.8067 409.558 57.0845L392.938 72.7768C392.938 72.7768 414.35 83.4445 415.742 102.113C415.703 102.113 417.752 118.849 403.799 127.893Z" fill="#ECFF55"/>
</svg>