<svg width="265" height="116" viewBox="0 0 265 116" fill="none" xmlns="http://www.w3.org/2000/svg">
<g filter="url(#filter0_d_78_1024)">
<path d="M78.975 17.9849L75.4242 17.5176L64.2615 99.1254C56.8815 101.649 49.9425 101.439 49.9425 101.439C49.9425 101.439 35.8556 101.018 28.8237 93.7503C21.8151 86.4823 20.237 83.3039 17.8931 75.3348L10.2578 11.9789L25.8068 10.9272L28.0115 25.8139L34.0686 25.4633L32.6298 10.0158L77.6522 5.38855L78.975 17.9849Z" fill="white"/>
<path d="M78.6487 20.4636C79.4079 20.5635 80.1709 20.31 80.7194 19.7758C81.2679 19.2415 81.5413 18.4853 81.4613 17.7238L80.1385 5.12745C79.9945 3.75644 78.7679 2.76071 77.3966 2.90165L32.3742 7.5289C31.01 7.66911 30.0134 8.88216 30.1405 10.2477L31.3393 23.1171L30.1496 23.186L28.2798 10.561C28.0888 9.27132 26.9388 8.34495 25.6381 8.43292L10.0891 9.48457C9.4049 9.53085 8.76975 9.85615 8.33235 10.3843C7.89495 10.9125 7.69372 11.5971 7.77577 12.278L15.411 75.6339C15.4276 75.7714 15.4556 75.9073 15.4946 76.0402C16.6791 80.0673 17.7267 83.0907 19.4459 86.0586C21.1608 89.0191 23.472 91.802 27.0242 95.4857L27.027 95.4886C31.0516 99.6484 36.9092 101.708 41.4589 102.756C43.7787 103.291 45.8613 103.585 47.3657 103.746C48.1195 103.826 48.7325 103.874 49.1628 103.902C49.378 103.915 49.5478 103.924 49.667 103.93C49.7266 103.933 49.7736 103.935 49.8072 103.936L49.8478 103.937L49.8604 103.938L49.8648 103.938L49.8665 103.938C49.8668 103.938 49.8671 103.938 49.8718 103.787C49.8674 103.938 49.8676 103.938 49.8678 103.938L49.869 103.938L49.8719 103.938L49.8796 103.938L49.9026 103.939L49.9783 103.94C50.0419 103.941 50.1313 103.943 50.245 103.943C50.4724 103.944 50.7971 103.942 51.2064 103.932C52.0243 103.911 53.1836 103.855 54.5807 103.717C57.3645 103.441 61.1453 102.833 65.0705 101.491C65.9649 101.185 66.6103 100.401 66.7384 99.4642L77.5641 20.3208L78.6487 20.4636Z" stroke="black" stroke-width="5" stroke-linejoin="round"/>
</g>
<g filter="url(#filter1_d_78_1024)">
<mask id="path-3-outside-1_78_1024" maskUnits="userSpaceOnUse" x="58.9136" y="11.5176" width="74" height="99" fill="black">
<rect fill="white" x="58.9136" y="11.5176" width="74" height="99"/>
<path fill-rule="evenodd" clip-rule="evenodd" d="M64.2626 99.1173L75.4243 17.5176L78.975 17.985L108.286 21.8177C108.286 21.8177 114.436 22.6356 120.377 26.4216C120.296 26.5852 120.209 26.7488 120.122 26.9123C120.035 27.0759 119.948 27.2395 119.867 27.4031C114.97 37.2419 117.105 51.5676 121.375 58.0878C122.814 60.2612 124.81 62.6216 127.595 64.8184C125.483 69.0717 123.232 71.175 123.232 71.175C123.232 71.175 115.596 79.6349 100.744 77.1343L96.8217 105.389L63.9136 101.579L64.2385 99.1255C64.2465 99.1227 64.2546 99.12 64.2626 99.1173ZM103.645 47.4779L101.231 63.1358C109.563 63.5564 111.674 60.121 111.419 54.6525C111.117 48.7632 103.645 47.4779 103.645 47.4779Z"/>
</mask>
<path fill-rule="evenodd" clip-rule="evenodd" d="M64.2626 99.1173L75.4243 17.5176L78.975 17.985L108.286 21.8177C108.286 21.8177 114.436 22.6356 120.377 26.4216C120.296 26.5852 120.209 26.7488 120.122 26.9123C120.035 27.0759 119.948 27.2395 119.867 27.4031C114.97 37.2419 117.105 51.5676 121.375 58.0878C122.814 60.2612 124.81 62.6216 127.595 64.8184C125.483 69.0717 123.232 71.175 123.232 71.175C123.232 71.175 115.596 79.6349 100.744 77.1343L96.8217 105.389L63.9136 101.579L64.2385 99.1255C64.2465 99.1227 64.2546 99.12 64.2626 99.1173ZM103.645 47.4779L101.231 63.1358C109.563 63.5564 111.674 60.121 111.419 54.6525C111.117 48.7632 103.645 47.4779 103.645 47.4779Z" fill="white"/>
<path d="M64.2626 99.1173L65.8727 103.851C67.6654 103.241 68.9599 101.671 69.2165 99.7949L64.2626 99.1173ZM75.4243 17.5176L76.0768 12.5603C73.3488 12.2012 70.8433 14.1138 70.4704 16.84L75.4243 17.5176ZM78.975 17.985L78.3225 22.9422L78.3267 22.9428L78.975 17.985ZM108.286 21.8177L108.945 16.8613L108.934 16.8599L108.286 21.8177ZM120.377 26.4216L124.855 28.6454C125.992 26.3563 125.22 23.5785 123.064 22.2049L120.377 26.4216ZM120.122 26.9123L124.536 29.2608L124.536 29.2605L120.122 26.9123ZM119.867 27.4031L124.343 29.6309L124.345 29.6266L119.867 27.4031ZM121.375 58.0878L117.192 60.8272C117.197 60.8341 117.201 60.841 117.206 60.8479L121.375 58.0878ZM127.595 64.8184L132.073 67.042C133.125 64.9234 132.548 62.3576 130.691 60.8927L127.595 64.8184ZM123.232 71.175L119.818 67.5216C119.715 67.6184 119.615 67.7197 119.52 67.825L123.232 71.175ZM100.744 77.1343L101.574 72.2037C100.242 71.9794 98.8751 72.3039 97.7858 73.1032C96.6965 73.9025 95.977 75.1086 95.7912 76.4469L100.744 77.1343ZM96.8217 105.389L96.2467 110.355C98.9459 110.668 101.401 108.767 101.774 106.076L96.8217 105.389ZM63.9136 101.579L58.9568 100.923C58.7809 102.252 59.1458 103.595 59.9696 104.653C60.7934 105.71 62.0072 106.392 63.3386 106.546L63.9136 101.579ZM64.2385 99.1255L62.6304 94.3911C60.8294 95.0028 59.5314 96.5835 59.2817 98.4692L64.2385 99.1255ZM101.231 63.1358L96.2895 62.374C96.0739 63.7726 96.461 65.1971 97.3549 66.2941C98.2488 67.3911 99.5657 68.058 100.979 68.1294L101.231 63.1358ZM103.645 47.4779L104.492 42.5503C103.17 42.3229 101.813 42.6361 100.724 43.4195C99.6356 44.2028 98.9074 45.3907 98.703 46.7162L103.645 47.4779ZM111.419 54.6525L116.414 54.4193C116.413 54.4118 116.413 54.4042 116.413 54.3967L111.419 54.6525ZM69.2165 99.7949L80.3781 18.1952L70.4704 16.84L59.3087 98.4396L69.2165 99.7949ZM74.7717 22.4748L78.3225 22.9422L79.6276 13.0277L76.0768 12.5603L74.7717 22.4748ZM108.934 16.8599L79.6233 13.0272L78.3267 22.9428L107.638 26.7755L108.934 16.8599ZM123.064 22.2049C119.592 19.9922 116.109 18.6742 113.528 17.9071C112.228 17.5205 111.128 17.2656 110.334 17.1045C109.937 17.0239 109.614 16.9663 109.379 16.9274C109.261 16.9079 109.165 16.893 109.092 16.8822C109.056 16.8768 109.025 16.8724 109.001 16.869C108.989 16.8672 108.978 16.8657 108.968 16.8645C108.964 16.8638 108.96 16.8633 108.956 16.8627C108.954 16.8625 108.952 16.8622 108.95 16.862C108.949 16.8619 108.948 16.8617 108.948 16.8617C108.947 16.8615 108.945 16.8613 108.286 21.8177C107.627 26.7741 107.626 26.7739 107.625 26.7738C107.624 26.7737 107.623 26.7736 107.623 26.7735C107.621 26.7733 107.62 26.7731 107.619 26.773C107.616 26.7726 107.614 26.7724 107.613 26.7721C107.609 26.7717 107.608 26.7714 107.607 26.7714C107.606 26.7712 107.611 26.7719 107.621 26.7734C107.641 26.7764 107.683 26.7828 107.745 26.7931C107.87 26.8137 108.074 26.8496 108.346 26.9048C108.891 27.0154 109.7 27.2016 110.679 27.4927C112.659 28.081 115.221 29.065 117.69 30.6382L123.064 22.2049ZM124.536 29.2605C124.617 29.1079 124.738 28.8823 124.855 28.6454L115.899 24.1977C115.854 24.288 115.8 24.3896 115.708 24.5642L124.536 29.2605ZM124.345 29.6266C124.39 29.5367 124.443 29.4354 124.536 29.2608L115.708 24.5638C115.627 24.7164 115.506 24.9423 115.388 25.1796L124.345 29.6266ZM125.558 55.3485C124.016 52.9942 122.578 48.6659 122.167 43.5865C121.759 38.5516 122.421 33.4926 124.343 29.6309L115.39 25.1753C112.416 31.1524 111.696 38.1756 112.2 44.3934C112.699 50.5666 114.464 56.6613 117.192 60.8272L125.558 55.3485ZM130.691 60.8927C128.37 59.0616 126.724 57.1102 125.544 55.3277L117.206 60.8479C118.904 63.4123 121.25 66.1817 124.498 68.744L130.691 60.8927ZM123.232 71.175C126.645 74.8285 126.646 74.8276 126.647 74.8266C126.648 74.8263 126.649 74.8254 126.649 74.8248C126.651 74.8235 126.652 74.8222 126.653 74.8209C126.656 74.8182 126.659 74.8154 126.662 74.8124C126.669 74.8065 126.675 74.8001 126.683 74.7931C126.698 74.7791 126.714 74.7629 126.733 74.7446C126.771 74.7079 126.818 74.6624 126.872 74.6081C126.98 74.4995 127.12 74.3557 127.286 74.1764C127.618 73.818 128.056 73.3167 128.56 72.6713C129.569 71.3814 130.849 69.5078 132.073 67.042L123.116 62.5948C122.229 64.3823 121.327 65.687 120.682 66.5121C120.36 66.9242 120.103 67.2146 119.947 67.3834C119.869 67.4678 119.816 67.5215 119.793 67.5446C119.782 67.5561 119.778 67.56 119.782 67.5561C119.784 67.5542 119.788 67.5504 119.794 67.5446C119.797 67.5417 119.8 67.5384 119.804 67.5345C119.806 67.5326 119.809 67.5306 119.811 67.5284C119.812 67.5273 119.813 67.5262 119.814 67.5251C119.815 67.5245 119.816 67.5236 119.816 67.5233C119.817 67.5224 119.818 67.5216 123.232 71.175ZM99.9136 82.065C108.465 83.5047 115.127 81.799 119.716 79.6023C121.988 78.5152 123.723 77.3226 124.919 76.3707C125.519 75.894 125.986 75.4747 126.323 75.1545C126.491 74.9942 126.627 74.8583 126.73 74.7518C126.782 74.6986 126.826 74.6526 126.861 74.6146C126.879 74.5956 126.895 74.5786 126.908 74.5636C126.915 74.5562 126.922 74.5492 126.927 74.5428C126.93 74.5395 126.933 74.5364 126.936 74.5335C126.937 74.532 126.939 74.5299 126.94 74.5291C126.942 74.5271 126.944 74.525 123.232 71.175C119.52 67.825 119.522 67.823 119.523 67.8211C119.524 67.8205 119.526 67.8185 119.527 67.8173C119.529 67.8149 119.531 67.8126 119.533 67.8104C119.537 67.806 119.541 67.8021 119.544 67.7986C119.55 67.7918 119.555 67.7869 119.558 67.7838C119.563 67.7777 119.562 67.7789 119.554 67.787C119.539 67.8032 119.496 67.8466 119.427 67.9128C119.287 68.0454 119.043 68.2675 118.694 68.5449C117.995 69.1011 116.893 69.8672 115.399 70.5825C112.457 71.9906 107.875 73.2646 101.574 72.2037L99.9136 82.065ZM101.774 106.076L105.696 77.8218L95.7912 76.4469L91.8692 104.701L101.774 106.076ZM63.3386 106.546L96.2467 110.355L97.3966 100.422L64.4885 96.6125L63.3386 106.546ZM59.2817 98.4692L58.9568 100.923L68.8703 102.236L69.1952 99.7818L59.2817 98.4692ZM62.6525 94.3836C62.6458 94.3859 62.6394 94.388 62.6304 94.3911L65.8465 103.86C65.8536 103.857 65.8633 103.854 65.8727 103.851L62.6525 94.3836ZM106.173 63.8975L108.586 48.2396L98.703 46.7162L96.2895 62.374L106.173 63.8975ZM106.425 54.8856C106.474 55.9417 106.392 56.6245 106.279 57.0431C106.179 57.4119 106.08 57.4977 106.066 57.5118C106.024 57.5525 105.161 58.3278 101.483 58.1421L100.979 68.1294C105.633 68.3644 109.992 67.6323 113.025 64.6933C116.114 61.6994 116.565 57.6503 116.414 54.4193L106.425 54.8856ZM103.645 47.4779C102.797 52.4055 102.795 52.4052 102.794 52.4049C102.793 52.4048 102.791 52.4045 102.79 52.4043C102.788 52.4039 102.786 52.4036 102.784 52.4032C102.78 52.4025 102.776 52.4019 102.773 52.4013C102.766 52.4002 102.762 52.3993 102.758 52.3987C102.752 52.3975 102.752 52.3974 102.757 52.3985C102.769 52.4008 102.803 52.4077 102.857 52.4199C102.965 52.4446 103.146 52.4892 103.374 52.5581C103.849 52.7011 104.439 52.9215 104.993 53.2288C106.168 53.881 106.401 54.4197 106.426 54.9083L116.413 54.3967C116.136 48.996 112.481 45.9474 109.845 44.4846C108.493 43.7344 107.196 43.2654 106.26 42.9834C105.783 42.8398 105.378 42.738 105.076 42.6693C104.925 42.6349 104.798 42.6084 104.7 42.589C104.651 42.5793 104.608 42.5712 104.574 42.5648C104.556 42.5616 104.541 42.5588 104.527 42.5564C104.52 42.5552 104.514 42.5541 104.508 42.553C104.505 42.5525 104.503 42.552 104.5 42.5516C104.499 42.5513 104.497 42.551 104.496 42.5509C104.494 42.5506 104.492 42.5503 103.645 47.4779Z" fill="black" mask="url(#path-3-outside-1_78_1024)"/>
</g>
<g filter="url(#filter2_d_78_1024)">
<mask id="path-5-outside-2_78_1024" maskUnits="userSpaceOnUse" x="112.052" y="6.65173" width="67" height="73" fill="black">
<rect fill="white" x="112.052" y="6.65173" width="67" height="73"/>
<path fill-rule="evenodd" clip-rule="evenodd" d="M161.756 51.2638L163.566 51.5209L148.621 54.7927L167.743 64.164L162.963 74.5636L154.724 74.2131C141.612 73.068 133.095 69.1885 127.595 64.8184C124.81 62.5982 122.814 60.2612 121.375 58.0878C117.105 51.5676 114.97 37.2418 119.866 27.4031C119.948 27.2395 120.035 27.0759 120.122 26.9123C120.209 26.7487 120.296 26.5851 120.377 26.4215C125.274 17.3774 132.747 14.6431 132.747 14.6431C132.747 14.6431 137.992 11.6517 148.133 11.6517C158.043 11.6517 161.686 15.5779 161.686 15.5779C168.811 20.5791 172.037 29.7868 173.499 37.2886L165.423 36.4005L161.756 51.2638ZM154.933 40.4902C154.933 40.4902 153.03 33.7363 147.158 33.7363C141.287 33.7363 138.873 37.6157 140.243 44.6968L154.933 40.4902Z"/>
</mask>
<path fill-rule="evenodd" clip-rule="evenodd" d="M161.756 51.2638L163.566 51.5209L148.621 54.7927L167.743 64.164L162.963 74.5636L154.724 74.2131C141.612 73.068 133.095 69.1885 127.595 64.8184C124.81 62.5982 122.814 60.2612 121.375 58.0878C117.105 51.5676 114.97 37.2418 119.866 27.4031C119.948 27.2395 120.035 27.0759 120.122 26.9123C120.209 26.7487 120.296 26.5851 120.377 26.4215C125.274 17.3774 132.747 14.6431 132.747 14.6431C132.747 14.6431 137.992 11.6517 148.133 11.6517C158.043 11.6517 161.686 15.5779 161.686 15.5779C168.811 20.5791 172.037 29.7868 173.499 37.2886L165.423 36.4005L161.756 51.2638ZM154.933 40.4902C154.933 40.4902 153.03 33.7363 147.158 33.7363C141.287 33.7363 138.873 37.6157 140.243 44.6968L154.933 40.4902Z" fill="white"/>
<path d="M163.566 51.5209L164.635 56.4052C166.999 55.8878 168.653 53.7525 168.563 51.3348C168.473 48.9171 166.664 46.9107 164.269 46.5705L163.566 51.5209ZM161.756 51.2638L156.901 50.0662C156.563 51.4387 156.821 52.8904 157.612 54.0619C158.403 55.2334 159.653 56.0154 161.053 56.2141L161.756 51.2638ZM148.621 54.7927L147.551 49.9083C145.474 50.3631 143.911 52.0823 143.657 54.1937C143.402 56.3051 144.511 58.3466 146.42 59.2825L148.621 54.7927ZM167.743 64.164L172.286 66.2524C173.42 63.7872 172.38 60.8681 169.944 59.6742L167.743 64.164ZM162.963 74.5636L162.75 79.5591C164.779 79.6454 166.658 78.4967 167.506 76.652L162.963 74.5636ZM154.724 74.2131L154.289 79.1941C154.363 79.2006 154.437 79.2054 154.512 79.2086L154.724 74.2131ZM127.595 64.8184L124.478 68.7281L124.484 68.7331L127.595 64.8184ZM121.375 58.0878L117.192 60.8272C117.197 60.8341 117.201 60.841 117.206 60.8479L121.375 58.0878ZM119.866 27.4031L124.343 29.6309L124.345 29.6262L119.866 27.4031ZM120.377 26.4215L115.98 24.0409C115.952 24.0922 115.926 24.1439 115.9 24.1961L120.377 26.4215ZM132.747 14.6431L134.465 19.3386C134.727 19.2426 134.981 19.1248 135.224 18.9863L132.747 14.6431ZM161.686 15.5779L158.021 18.9791C158.26 19.2367 158.526 19.4684 158.814 19.6703L161.686 15.5779ZM173.499 37.2886L172.952 42.2586C174.533 42.4324 176.101 41.8443 177.178 40.6744C178.255 39.5046 178.711 37.8925 178.407 36.3321L173.499 37.2886ZM165.423 36.4005L165.969 31.4305C163.478 31.1565 161.169 32.7695 160.568 35.2029L165.423 36.4005ZM154.933 40.4902L156.309 45.2971C158.956 44.5392 160.492 41.7842 159.746 39.1342L154.933 40.4902ZM140.243 44.6968L135.334 45.6461C135.6 47.023 136.432 48.2247 137.627 48.9583C138.822 49.6918 140.271 49.8897 141.619 49.5037L140.243 44.6968ZM164.269 46.5705L162.459 46.3135L161.053 56.2141L162.863 56.4712L164.269 46.5705ZM149.69 59.677L164.635 56.4052L162.497 46.6365L147.551 49.9083L149.69 59.677ZM169.944 59.6742L150.821 50.3028L146.42 59.2825L165.543 68.6539L169.944 59.6742ZM167.506 76.652L172.286 66.2524L163.2 62.0756L158.42 72.4752L167.506 76.652ZM154.512 79.2086L162.75 79.5591L163.175 69.5682L154.937 69.2176L154.512 79.2086ZM124.484 68.7331C130.872 73.8084 140.364 77.978 154.289 79.1941L155.159 69.232C142.86 68.1579 135.318 64.5687 130.705 60.9036L124.484 68.7331ZM130.711 60.9087C128.362 59.0356 126.714 57.0947 125.544 55.3277L117.206 60.8479C118.914 63.4277 121.257 66.1608 124.478 68.7281L130.711 60.9087ZM125.558 55.3484C124.016 52.9941 122.578 48.6658 122.167 43.5865C121.759 38.5515 122.421 33.4925 124.343 29.6309L115.39 25.1752C112.415 31.1523 111.696 38.1756 112.199 44.3933C112.699 50.5665 114.464 56.6612 117.192 60.8272L125.558 55.3484ZM124.345 29.6262C124.39 29.5365 124.443 29.4354 124.536 29.2608L115.708 24.5638C115.626 24.7163 115.506 24.9424 115.388 25.1799L124.345 29.6262ZM124.536 29.2608C124.617 29.108 124.737 28.8831 124.855 28.647L115.9 24.1961C115.854 24.2872 115.8 24.3894 115.708 24.5638L124.536 29.2608ZM132.747 14.6431C131.029 9.94754 131.027 9.94827 131.025 9.94901C131.024 9.94927 131.022 9.95003 131.02 9.95055C131.017 9.9516 131.015 9.95269 131.011 9.95384C131.005 9.95612 130.999 9.95859 130.992 9.96124C130.977 9.96656 130.961 9.97262 130.943 9.97944C130.908 9.9931 130.864 10.0098 130.814 10.0297C130.714 10.0695 130.586 10.1221 130.433 10.1884C130.126 10.321 129.716 10.5091 129.225 10.7606C128.244 11.2627 126.926 12.0226 125.446 13.105C122.483 15.2725 118.844 18.7519 115.98 24.0409L124.774 28.8021C126.807 25.0471 129.353 22.6372 131.35 21.1765C132.35 20.4448 133.207 19.9559 133.78 19.6627C134.066 19.5165 134.278 19.4203 134.399 19.368C134.46 19.342 134.497 19.327 134.509 19.3223C134.515 19.32 134.514 19.3202 134.507 19.323C134.503 19.3243 134.498 19.3263 134.491 19.329C134.487 19.3303 134.483 19.3317 134.479 19.3333C134.477 19.3341 134.475 19.335 134.472 19.3359C134.471 19.3363 134.469 19.337 134.469 19.3372C134.467 19.3379 134.465 19.3386 132.747 14.6431ZM148.133 6.65173C142.564 6.65173 138.249 7.47393 135.244 8.34524C133.744 8.78026 132.575 9.22607 131.744 9.58457C131.329 9.76379 130.998 9.92116 130.752 10.0444C130.629 10.1061 130.527 10.1592 130.447 10.2023C130.406 10.2238 130.372 10.2428 130.342 10.2591C130.327 10.2673 130.314 10.2748 130.302 10.2816C130.296 10.285 130.29 10.2882 130.285 10.2912C130.282 10.2928 130.279 10.2942 130.277 10.2957C130.276 10.2964 130.274 10.2974 130.273 10.2978C130.271 10.2988 130.27 10.2998 132.747 14.6431C135.224 18.9863 135.222 18.9873 135.22 18.9883C135.22 18.9886 135.218 18.9896 135.217 18.9902C135.215 18.9915 135.213 18.9927 135.211 18.9938C135.206 18.9962 135.203 18.9983 135.199 19.0003C135.192 19.0042 135.186 19.0074 135.182 19.0099C135.173 19.0149 135.169 19.0171 135.169 19.0167C135.171 19.016 135.192 19.0048 135.232 18.9847C135.312 18.9444 135.47 18.868 135.705 18.7668C136.174 18.5644 136.951 18.2624 138.029 17.9496C140.182 17.3252 143.561 16.6517 148.133 16.6517V6.65173ZM161.686 15.5779C165.351 12.1767 165.349 12.1743 165.347 12.1718C165.346 12.171 165.344 12.1685 165.342 12.1668C165.339 12.1635 165.336 12.16 165.332 12.1566C165.326 12.1496 165.319 12.1424 165.312 12.135C165.298 12.1202 165.283 12.1044 165.267 12.0877C165.234 12.0543 165.198 12.0173 165.157 11.977C165.075 11.8963 164.977 11.8022 164.86 11.6969C164.626 11.4863 164.322 11.2309 163.94 10.948C163.176 10.3812 162.11 9.70911 160.703 9.06653C157.87 7.77294 153.769 6.65173 148.133 6.65173V16.6517C152.407 16.6517 155.083 17.4936 156.549 18.1631C157.291 18.502 157.756 18.8115 157.984 18.9808C158.099 19.066 158.156 19.1174 158.161 19.1214C158.163 19.1235 158.152 19.1138 158.129 19.0906C158.117 19.079 158.102 19.0641 158.084 19.0456C158.075 19.0363 158.066 19.0261 158.055 19.0151C158.05 19.0095 158.044 19.0038 158.039 18.9978C158.036 18.9948 158.033 18.9917 158.03 18.9886C158.029 18.987 158.027 18.9846 158.026 18.9839C158.024 18.9815 158.021 18.9791 161.686 15.5779ZM178.407 36.3321C176.891 28.5583 173.353 17.6585 164.559 11.4855L158.814 19.6703C164.269 23.4996 167.182 31.0153 168.591 38.2451L178.407 36.3321ZM164.876 41.3706L172.952 42.2586L174.045 32.3185L165.969 31.4305L164.876 41.3706ZM166.61 52.4614L170.277 37.5981L160.568 35.2029L156.901 50.0662L166.61 52.4614ZM147.158 38.7363C147.879 38.7363 148.495 39.0656 149.183 40.0253C149.52 40.4955 149.775 40.9977 149.945 41.3971C150.027 41.5896 150.082 41.74 150.111 41.8259C150.126 41.8683 150.134 41.8934 150.135 41.8981C150.136 41.9004 150.135 41.8975 150.133 41.889C150.131 41.8848 150.13 41.8791 150.128 41.872C150.127 41.8685 150.126 41.8646 150.124 41.8603C150.124 41.8581 150.123 41.8559 150.122 41.8535C150.122 41.8524 150.122 41.8505 150.121 41.85C150.121 41.8481 150.12 41.8463 154.933 40.4902C159.746 39.1342 159.745 39.1323 159.744 39.1304C159.744 39.1297 159.744 39.1277 159.743 39.1263C159.743 39.1236 159.742 39.1207 159.741 39.1178C159.739 39.1118 159.737 39.1055 159.735 39.0987C159.731 39.0851 159.727 39.0697 159.722 39.0527C159.712 39.0187 159.7 38.9778 159.685 38.9307C159.656 38.8365 159.617 38.7164 159.568 38.5742C159.47 38.2907 159.331 37.9134 159.143 37.4728C158.773 36.6058 158.185 35.4196 157.312 34.2013C155.58 31.784 152.309 28.7363 147.158 28.7363V38.7363ZM145.152 43.7476C144.567 40.7214 145.04 39.5057 145.218 39.2223C145.27 39.1404 145.324 39.0757 145.499 38.9951C145.721 38.8928 146.223 38.7363 147.158 38.7363V28.7363C143.099 28.7363 139.111 30.148 136.752 33.9C134.598 37.3266 134.549 41.5911 135.334 45.6461L145.152 43.7476ZM153.556 35.6834L138.866 39.89L141.619 49.5037L156.309 45.2971L153.556 35.6834Z" fill="black" mask="url(#path-5-outside-2_78_1024)"/>
</g>
<g filter="url(#filter3_d_78_1024)">
<mask id="path-7-outside-3_78_1024" maskUnits="userSpaceOnUse" x="156.756" y="17.9209" width="61" height="90" fill="black">
<rect fill="white" x="156.756" y="17.9209" width="61" height="90"/>
<path fill-rule="evenodd" clip-rule="evenodd" d="M195.337 79.3778L198.377 56.522L212.278 58.3448L212.301 58.228C209.284 55.4236 205.432 50.4224 205.896 43.4815L201.208 42.6636L203.274 27.9172L176.005 23.9209L173.522 37.3119H173.503C173.502 37.3041 173.5 37.2963 173.499 37.2885L165.423 36.4004L161.756 51.2637L163.566 51.5208L174.706 49.0903C174.706 49.1058 174.705 49.1137 174.705 49.1137L163.566 51.5442L170.017 52.4322C170.017 52.4322 167.232 68.1135 165.886 74.8674C164.564 81.6213 165.121 87.5339 165.121 87.5339C165.121 87.5339 166.722 102.701 187.4 102.748C208.078 102.794 209.981 81.9718 209.981 81.9718L195.337 79.3778Z"/>
</mask>
<path fill-rule="evenodd" clip-rule="evenodd" d="M195.337 79.3778L198.377 56.522L212.278 58.3448L212.301 58.228C209.284 55.4236 205.432 50.4224 205.896 43.4815L201.208 42.6636L203.274 27.9172L176.005 23.9209L173.522 37.3119H173.503C173.502 37.3041 173.5 37.2963 173.499 37.2885L165.423 36.4004L161.756 51.2637L163.566 51.5208L174.706 49.0903C174.706 49.1058 174.705 49.1137 174.705 49.1137L163.566 51.5442L170.017 52.4322C170.017 52.4322 167.232 68.1135 165.886 74.8674C164.564 81.6213 165.121 87.5339 165.121 87.5339C165.121 87.5339 166.722 102.701 187.4 102.748C208.078 102.794 209.981 81.9718 209.981 81.9718L195.337 79.3778Z" fill="white"/>
<path d="M198.377 56.522L199.027 51.5644C196.293 51.2059 193.784 53.129 193.421 55.8627L198.377 56.522ZM195.337 79.3778L190.38 78.7185C190.027 81.3728 191.828 83.8341 194.465 84.3011L195.337 79.3778ZM212.278 58.3448L211.628 63.3024C214.24 63.6449 216.67 61.9021 217.182 59.3183L212.278 58.3448ZM212.301 58.228L217.206 59.2015C217.543 57.5006 216.976 55.7463 215.705 54.5658L212.301 58.228ZM205.896 43.4815L210.885 43.8151C211.055 41.2641 209.274 38.9954 206.755 38.556L205.896 43.4815ZM201.208 42.6636L196.257 41.9701C195.883 44.6401 197.693 47.1258 200.349 47.5892L201.208 42.6636ZM203.274 27.9172L208.225 28.6107C208.607 25.8883 206.719 23.3686 203.999 22.97L203.274 27.9172ZM176.005 23.9209L176.73 18.9737C174.071 18.584 171.579 20.3665 171.089 23.0092L176.005 23.9209ZM173.522 37.3119V42.3119C175.932 42.3119 177.999 40.593 178.438 38.2235L173.522 37.3119ZM173.503 37.3119L168.597 38.273C169.056 40.6193 171.113 42.3119 173.503 42.3119V37.3119ZM173.499 37.2885L178.406 36.3278C177.985 34.1816 176.219 32.5575 174.045 32.3185L173.499 37.2885ZM165.423 36.4004L165.969 31.4304C163.478 31.1564 161.168 32.7694 160.568 35.2029L165.423 36.4004ZM161.756 51.2637L156.901 50.0661C156.563 51.4386 156.821 52.8903 157.612 54.0618C158.403 55.2334 159.653 56.0153 161.053 56.2141L161.756 51.2637ZM163.566 51.5208L162.863 56.4711C163.452 56.5548 164.051 56.5327 164.632 56.4059L163.566 51.5208ZM174.706 49.0903L179.705 49.1297C179.717 47.6096 179.037 46.1667 177.857 45.2085C176.677 44.2504 175.125 43.8812 173.64 44.2053L174.706 49.0903ZM174.705 49.1137L175.771 53.9988C178.025 53.5069 179.65 51.5365 179.704 49.2299L174.705 49.1137ZM163.566 51.5442L162.5 46.6591C160.132 47.1758 158.475 49.317 158.57 51.7392C158.664 54.1614 160.482 56.1669 162.884 56.4975L163.566 51.5442ZM170.017 52.4322L174.94 53.3065C175.178 51.9676 174.86 50.5896 174.06 49.4901C173.26 48.3905 172.046 47.6644 170.699 47.4789L170.017 52.4322ZM165.886 74.8674L160.983 73.8901C160.982 73.8955 160.981 73.9009 160.98 73.9063L165.886 74.8674ZM165.121 87.5339L160.143 88.0028C160.144 88.0215 160.146 88.0402 160.148 88.0589L165.121 87.5339ZM187.4 102.748L187.411 97.7477L187.4 102.748ZM209.981 81.9718L214.96 82.4269C215.196 79.8393 213.411 77.5017 210.853 77.0485L209.981 81.9718ZM193.421 55.8627L190.38 78.7185L200.293 80.0371L203.333 57.1813L193.421 55.8627ZM212.928 53.3873L199.027 51.5644L197.727 61.4795L211.628 63.3024L212.928 53.3873ZM207.397 57.2545L207.374 57.3714L217.182 59.3183L217.206 59.2015L207.397 57.2545ZM200.907 43.148C200.298 52.2584 205.384 58.6243 208.897 61.8902L215.705 54.5658C213.185 52.2229 210.566 48.5865 210.885 43.8151L200.907 43.148ZM200.349 47.5892L205.037 48.4071L206.755 38.556L202.068 37.738L200.349 47.5892ZM198.322 27.2236L196.257 41.9701L206.16 43.3571L208.225 28.6107L198.322 27.2236ZM175.28 28.8681L202.549 32.8643L203.999 22.97L176.73 18.9737L175.28 28.8681ZM178.438 38.2235L180.921 24.8326L171.089 23.0092L168.606 36.4002L178.438 38.2235ZM173.503 42.3119H173.522V32.3119H173.503V42.3119ZM168.592 38.2492C168.591 38.2451 168.591 38.2422 168.59 38.2412C168.59 38.2405 168.59 38.2401 168.591 38.2425C168.591 38.2441 168.592 38.2484 168.593 38.2531C168.594 38.2581 168.595 38.265 168.597 38.273L178.41 36.3507C178.411 36.3549 178.412 36.3579 178.412 36.359C178.412 36.3598 178.412 36.3602 178.412 36.3579C178.411 36.3564 178.41 36.3521 178.41 36.3475C178.409 36.3426 178.407 36.3358 178.406 36.3278L168.592 38.2492ZM164.876 41.3705L172.952 42.2585L174.045 32.3185L165.969 31.4304L164.876 41.3705ZM166.61 52.4613L170.277 37.598L160.568 35.2029L156.901 50.0661L166.61 52.4613ZM164.269 46.5705L162.459 46.3134L161.053 56.2141L162.863 56.4711L164.269 46.5705ZM173.64 44.2053L162.5 46.6357L164.632 56.4059L175.771 53.9754L173.64 44.2053ZM174.705 49.1137C179.704 49.2299 179.704 49.2298 179.704 49.2297C179.704 49.2297 179.704 49.2296 179.704 49.2296C179.704 49.2295 179.704 49.2294 179.704 49.2293C179.704 49.2291 179.704 49.2289 179.704 49.2287C179.704 49.2283 179.704 49.2279 179.704 49.2275C179.704 49.2267 179.704 49.2259 179.704 49.2251C179.704 49.2234 179.704 49.2218 179.704 49.2201C179.704 49.2167 179.704 49.2131 179.704 49.2095C179.705 49.2021 179.705 49.1943 179.705 49.1859C179.705 49.1692 179.705 49.1505 179.705 49.1297L169.706 49.0509C169.706 49.0457 169.706 49.0386 169.706 49.0297C169.706 49.0253 169.706 49.0204 169.706 49.015C169.706 49.0123 169.706 49.0095 169.706 49.0066C169.707 49.0051 169.707 49.0037 169.707 49.0021C169.707 49.0014 169.707 49.0006 169.707 48.9998C169.707 48.9995 169.707 48.9991 169.707 48.9987C169.707 48.9985 169.707 48.9983 169.707 48.9981C169.707 48.998 169.707 48.9979 169.707 48.9978C169.707 48.9978 169.707 48.9977 169.707 48.9977C169.707 48.9976 169.707 48.9975 174.705 49.1137ZM164.632 56.4293L175.771 53.9988L173.639 44.2286L162.5 46.6591L164.632 56.4293ZM170.699 47.4789L164.248 46.5909L162.884 56.4975L169.336 57.3855L170.699 47.4789ZM170.79 75.8446C171.473 72.4191 172.513 66.7693 173.376 62.0097C173.809 59.6227 174.2 57.4475 174.483 55.8692C174.624 55.0799 174.739 54.4397 174.818 53.9966C174.857 53.7751 174.888 53.6028 174.908 53.4858C174.919 53.4272 174.927 53.3826 174.932 53.3524C174.935 53.3374 174.937 53.326 174.938 53.3183C174.939 53.3144 174.939 53.3115 174.94 53.3096C174.94 53.3086 174.94 53.3078 174.94 53.3073C174.94 53.3071 174.94 53.3069 174.94 53.3068C174.94 53.3066 174.94 53.3065 170.017 52.4322C165.094 51.5579 165.094 51.558 165.094 51.5581C165.094 51.5582 165.094 51.5583 165.094 51.5586C165.094 51.559 165.094 51.5597 165.094 51.5606C165.094 51.5625 165.093 51.5653 165.092 51.569C165.091 51.5764 165.089 51.5876 165.087 51.6024C165.081 51.632 165.073 51.6762 165.063 51.7342C165.042 51.8502 165.012 52.0214 164.973 52.2418C164.894 52.6827 164.78 53.3203 164.639 54.1067C164.358 55.6797 163.968 57.847 163.537 60.2245C162.672 64.994 161.646 70.5617 160.983 73.8901L170.79 75.8446ZM165.121 87.5339C170.099 87.065 170.099 87.0658 170.099 87.0665C170.099 87.0667 170.099 87.0675 170.099 87.0679C170.099 87.0688 170.099 87.0696 170.099 87.0703C170.099 87.0717 170.099 87.0728 170.099 87.0735C170.099 87.075 170.1 87.0751 170.099 87.0737C170.099 87.0711 170.098 87.063 170.097 87.0495C170.095 87.0226 170.091 86.9743 170.086 86.906C170.076 86.7693 170.062 86.5526 170.049 86.2658C170.021 85.6911 169.995 84.8401 170.007 83.7896C170.031 81.6732 170.206 78.8245 170.793 75.8284L160.98 73.9063C160.244 77.6641 160.036 81.1487 160.008 83.6771C159.993 84.949 160.024 85.9983 160.06 86.7433C160.078 87.1162 160.097 87.4143 160.112 87.6273C160.12 87.7338 160.127 87.8192 160.132 87.8822C160.135 87.9137 160.137 87.9396 160.139 87.9597C160.14 87.9698 160.14 87.9784 160.141 87.9856C160.141 87.9892 160.142 87.9925 160.142 87.9953C160.142 87.9967 160.142 87.9981 160.142 87.9993C160.142 88 160.142 88.0008 160.142 88.0011C160.143 88.002 160.143 88.0028 165.121 87.5339ZM187.411 97.7477C178.478 97.7275 174.403 94.5341 172.437 92.0334C171.375 90.6823 170.772 89.329 170.438 88.3263C170.273 87.8289 170.179 87.4334 170.13 87.1914C170.106 87.071 170.093 86.9909 170.088 86.9577C170.085 86.9411 170.085 86.9365 170.086 86.9447C170.086 86.9488 170.087 86.9562 170.088 86.9668C170.089 86.9721 170.09 86.9783 170.09 86.9853C170.091 86.9888 170.091 86.9925 170.092 86.9965C170.092 86.9984 170.092 87.0016 170.092 87.0025C170.093 87.0057 170.093 87.0089 165.121 87.5339C160.148 88.0589 160.149 88.0622 160.149 88.0656C160.149 88.0668 160.149 88.0703 160.15 88.0727C160.15 88.0776 160.151 88.0827 160.151 88.088C160.153 88.0987 160.154 88.1103 160.155 88.123C160.158 88.1482 160.162 88.1773 160.166 88.2101C160.174 88.2757 160.185 88.3563 160.2 88.4508C160.228 88.6398 160.27 88.8855 160.33 89.18C160.449 89.7676 160.642 90.5574 160.949 91.4826C161.562 93.3253 162.652 95.7666 164.575 98.2132C168.58 103.308 175.643 107.721 187.388 107.748L187.411 97.7477ZM209.981 81.9718C205.001 81.5168 205.002 81.5145 205.002 81.5122C205.002 81.5116 205.002 81.5094 205.002 81.5081C205.002 81.5055 205.003 81.5033 205.003 81.5013C205.003 81.4973 205.003 81.4946 205.004 81.493C205.004 81.4899 205.004 81.4914 205.003 81.4976C205.002 81.5099 204.998 81.5404 204.992 81.5879C204.981 81.6831 204.959 81.8454 204.923 82.0652C204.851 82.5063 204.726 83.1698 204.518 83.9801C204.096 85.6199 203.364 87.7539 202.135 89.8411C199.797 93.8147 195.648 97.7664 187.411 97.7477L187.388 107.748C199.829 107.776 206.971 101.34 210.753 94.9135C212.585 91.8009 213.621 88.7322 214.203 86.4692C214.496 85.3281 214.681 84.3652 214.794 83.6677C214.851 83.3183 214.89 83.0333 214.916 82.8234C214.929 82.7184 214.939 82.632 214.946 82.5656C214.949 82.5323 214.952 82.504 214.955 82.4809C214.956 82.4693 214.957 82.459 214.958 82.45C214.958 82.4455 214.959 82.4413 214.959 82.4375C214.959 82.4356 214.959 82.4329 214.959 82.4319C214.96 82.4294 214.96 82.4269 209.981 81.9718ZM194.465 84.3011L209.108 86.8952L210.853 77.0485L196.209 74.4544L194.465 84.3011Z" fill="black" mask="url(#path-7-outside-3_78_1024)"/>
</g>
<g filter="url(#filter4_d_78_1024)">
<mask id="path-9-outside-4_78_1024" maskUnits="userSpaceOnUse" x="199.854" y="20.9656" width="65" height="72" fill="black">
<rect fill="white" x="199.854" y="20.9656" width="65" height="72"/>
<path fill-rule="evenodd" clip-rule="evenodd" d="M232.538 87.6274C246.509 87.4171 252.52 82.5328 252.52 82.5328C260.489 77.3313 259.765 67.9223 259.695 67.0157C259.692 66.9692 259.69 66.945 259.691 66.945C258.856 55.6573 245.999 49.2072 245.999 49.2072L255.978 39.719C246.174 25.683 231.047 26.7444 224.921 27.1742C224.377 27.2125 223.903 27.2457 223.511 27.2629C218.684 27.4732 207.126 31.3526 205.966 42.9207C205.954 43.0143 205.949 43.1079 205.943 43.2015C205.937 43.2949 205.931 43.3882 205.92 43.4816L214.274 44.9539L212.325 58.228C214.205 59.9808 215.736 60.8688 215.736 60.8688L206.918 69.6793C209.401 77.0175 218.568 87.8378 232.538 87.6274ZM212.301 58.228L214.251 44.9539L205.896 43.4816C205.409 50.4225 209.285 55.4236 212.301 58.228Z"/>
</mask>
<path fill-rule="evenodd" clip-rule="evenodd" d="M232.538 87.6274C246.509 87.4171 252.52 82.5328 252.52 82.5328C260.489 77.3313 259.765 67.9223 259.695 67.0157C259.692 66.9692 259.69 66.945 259.691 66.945C258.856 55.6573 245.999 49.2072 245.999 49.2072L255.978 39.719C246.174 25.683 231.047 26.7444 224.921 27.1742C224.377 27.2125 223.903 27.2457 223.511 27.2629C218.684 27.4732 207.126 31.3526 205.966 42.9207C205.954 43.0143 205.949 43.1079 205.943 43.2015C205.937 43.2949 205.931 43.3882 205.92 43.4816L214.274 44.9539L212.325 58.228C214.205 59.9808 215.736 60.8688 215.736 60.8688L206.918 69.6793C209.401 77.0175 218.568 87.8378 232.538 87.6274ZM212.301 58.228L214.251 44.9539L205.896 43.4816C205.409 50.4225 209.285 55.4236 212.301 58.228Z" fill="white"/>
<path d="M252.52 82.5328L249.787 78.3458C249.642 78.4407 249.502 78.543 249.367 78.6524L252.52 82.5328ZM232.538 87.6274L232.614 92.6269L232.538 87.6274ZM259.695 67.0157L264.681 66.6321L264.681 66.63L259.695 67.0157ZM259.691 66.945V71.945C261.081 71.945 262.409 71.3662 263.355 70.3476C264.301 69.3289 264.78 67.9624 264.678 66.576L259.691 66.945ZM245.999 49.2072L242.554 45.5837C241.374 46.7057 240.814 48.332 241.053 49.9425C241.293 51.5531 242.301 52.9462 243.757 53.6764L245.999 49.2072ZM255.978 39.719L259.423 43.3426C261.215 41.6393 261.493 38.8825 260.077 36.8559L255.978 39.719ZM224.921 27.1742L224.571 22.1865L224.571 22.1865L224.921 27.1742ZM223.511 27.2629L223.729 32.2581L223.73 32.2581L223.511 27.2629ZM205.966 42.9207L210.928 43.5387C210.933 43.4991 210.937 43.4594 210.941 43.4197L205.966 42.9207ZM205.943 43.2015L210.933 43.5115L210.933 43.5107L205.943 43.2015ZM205.92 43.4816L200.958 42.8652C200.629 45.5076 202.43 47.9436 205.052 48.4057L205.92 43.4816ZM214.274 44.9539L219.221 45.6804C219.614 43.0034 217.807 40.4994 215.142 40.0298L214.274 44.9539ZM212.325 58.228L207.378 57.5015C207.139 59.1265 207.714 60.7649 208.915 61.885L212.325 58.228ZM215.736 60.8688L219.27 64.4061C220.369 63.3082 220.895 61.7621 220.694 60.2219C220.493 58.6817 219.588 57.3223 218.244 56.5433L215.736 60.8688ZM206.918 69.6793L203.384 66.1421C202.037 67.487 201.571 69.4795 202.181 71.282L206.918 69.6793ZM214.251 44.9539L219.198 45.6804C219.591 43.0034 217.783 40.4994 215.119 40.0298L214.251 44.9539ZM212.301 58.228L208.897 61.8902C210.258 63.1549 212.207 63.5611 213.96 62.9451C215.712 62.329 216.979 60.7923 217.248 58.9545L212.301 58.228ZM205.896 43.4816L206.764 38.5575C205.369 38.3116 203.935 38.6691 202.818 39.5412C201.702 40.4134 201.008 41.7181 200.909 43.1314L205.896 43.4816ZM252.52 82.5328C249.367 78.6524 249.369 78.6507 249.371 78.649C249.372 78.6485 249.374 78.6468 249.375 78.6458C249.378 78.6436 249.38 78.6415 249.383 78.6395C249.388 78.6356 249.392 78.6319 249.397 78.6285C249.405 78.6217 249.412 78.616 249.418 78.6115C249.43 78.6025 249.435 78.598 249.436 78.5978C249.436 78.5973 249.415 78.6138 249.37 78.6451C249.28 78.7076 249.099 78.8294 248.822 78.9927C248.269 79.319 247.331 79.8134 245.976 80.3334C243.278 81.3695 238.864 82.5316 232.463 82.628L232.614 92.6269C240.184 92.5129 245.761 91.1277 249.56 89.6691C251.455 88.9417 252.893 88.2019 253.903 87.6058C254.408 87.3079 254.805 87.0465 255.099 86.8411C255.246 86.7384 255.367 86.6498 255.463 86.5776C255.51 86.5415 255.552 86.5096 255.587 86.4821C255.604 86.4683 255.62 86.4557 255.635 86.4442C255.642 86.4384 255.649 86.433 255.655 86.4278C255.658 86.4252 255.662 86.4227 255.665 86.4203C255.666 86.4191 255.668 86.4173 255.669 86.4167C255.671 86.4149 255.673 86.4132 252.52 82.5328ZM254.71 67.3993C254.782 68.3268 255.137 74.8535 249.787 78.3458L255.253 86.7198C265.84 79.809 264.749 67.5178 264.681 66.6321L254.71 67.3993ZM259.691 61.945C257.205 61.945 255.882 63.6278 255.492 64.2306C255.068 64.8866 254.906 65.4821 254.855 65.675C254.734 66.1364 254.709 66.5114 254.704 66.5882C254.686 66.8323 254.691 67.0256 254.692 67.058C254.695 67.1754 254.701 67.2708 254.702 67.2841C254.705 67.3359 254.71 67.3918 254.71 67.4014L264.681 66.63C264.678 66.593 264.679 66.6136 264.681 66.6417C264.681 66.6432 264.687 66.7297 264.69 66.8411C264.69 66.8705 264.695 67.0616 264.678 67.3041C264.673 67.3802 264.648 67.7546 264.527 68.2156C264.476 68.4084 264.314 69.0037 263.89 69.6596C263.5 70.2623 262.177 71.945 259.691 71.945V61.945ZM245.999 49.2072C243.757 53.6764 243.755 53.6756 243.754 53.675C243.754 53.6748 243.752 53.6741 243.751 53.6737C243.75 53.6729 243.748 53.6722 243.747 53.6716C243.745 53.6704 243.743 53.6695 243.742 53.669C243.74 53.6681 243.741 53.6686 243.745 53.6707C243.753 53.6748 243.773 53.6848 243.803 53.7007C243.863 53.7325 243.965 53.7876 244.104 53.8656C244.382 54.0221 244.804 54.2683 245.322 54.6008C246.368 55.271 247.763 56.2624 249.164 57.5393C252.069 60.1856 254.424 63.5164 254.705 67.3141L264.678 66.576C264.123 59.086 259.632 53.5479 255.899 50.1472C253.982 48.4007 252.111 47.0741 250.719 46.1821C250.019 45.7335 249.43 45.3877 249.002 45.1472C248.788 45.0268 248.613 44.9324 248.484 44.8642C248.42 44.8301 248.367 44.8025 248.326 44.7815C248.306 44.771 248.288 44.7621 248.274 44.7549C248.267 44.7513 248.261 44.7481 248.255 44.7453C248.252 44.7439 248.25 44.7426 248.247 44.7414C248.246 44.7408 248.245 44.74 248.244 44.7397C248.242 44.7389 248.241 44.7381 245.999 49.2072ZM252.533 36.0955L242.554 45.5837L249.444 52.8308L259.423 43.3426L252.533 36.0955ZM225.271 32.162C231.449 31.7285 243.804 31.0214 251.879 42.5821L260.077 36.8559C248.544 20.3447 230.644 21.7604 224.571 22.1865L225.271 32.162ZM223.73 32.2581C224.202 32.2374 224.749 32.1986 225.271 32.162L224.571 22.1865C224.004 22.2263 223.604 22.254 223.292 22.2676L223.73 32.2581ZM210.941 43.4197C211.341 39.4375 213.456 36.7926 216.15 34.9839C218.994 33.0748 222.194 32.325 223.729 32.2581L223.293 22.2676C220 22.4111 215.008 23.7062 210.576 26.6813C205.995 29.757 201.752 34.8359 200.991 42.4217L210.941 43.4197ZM210.933 43.5107C210.934 43.4986 210.935 43.4893 210.935 43.4804C210.936 43.4718 210.936 43.4653 210.936 43.4599C210.937 43.4489 210.937 43.446 210.937 43.4479C210.937 43.4501 210.936 43.4596 210.935 43.4744C210.933 43.4894 210.931 43.5113 210.928 43.5387L201.004 42.3028C200.97 42.5758 200.957 42.824 200.952 42.8924L210.933 43.5107ZM210.881 44.098C210.915 43.8266 210.929 43.5798 210.933 43.5115L200.952 42.8916C200.952 42.9036 200.951 42.9129 200.951 42.9218C200.95 42.9303 200.95 42.9369 200.949 42.9423C200.948 42.9533 200.948 42.9563 200.948 42.9545C200.949 42.9525 200.949 42.9432 200.951 42.9286C200.952 42.9139 200.954 42.8923 200.958 42.8652L210.881 44.098ZM215.142 40.0298L206.787 38.5575L205.052 48.4057L213.407 49.878L215.142 40.0298ZM217.272 58.9545L219.221 45.6804L209.327 44.2274L207.378 57.5015L217.272 58.9545ZM215.736 60.8688C218.244 56.5433 218.245 56.5436 218.246 56.544C218.246 56.5442 218.246 56.5445 218.247 56.5448C218.248 56.5453 218.249 56.5458 218.249 56.5463C218.251 56.5472 218.253 56.5481 218.254 56.549C218.257 56.5507 218.26 56.5522 218.262 56.5535C218.266 56.5561 218.269 56.5579 218.271 56.5589C218.274 56.5609 218.272 56.5597 218.265 56.5553C218.25 56.5465 218.215 56.5249 218.162 56.4907C218.055 56.4221 217.875 56.3037 217.641 56.1363C217.169 55.7996 216.49 55.2754 215.735 54.5711L208.915 61.885C210.039 62.9334 211.066 63.7297 211.83 64.2752C212.214 64.5488 212.535 64.762 212.773 64.9147C212.893 64.9911 212.992 65.0526 213.069 65.0992C213.107 65.1225 213.14 65.1421 213.166 65.1579C213.18 65.1659 213.192 65.1729 213.202 65.179C213.207 65.182 213.212 65.1848 213.216 65.1874C213.219 65.1887 213.221 65.1899 213.223 65.1911C213.224 65.1917 213.225 65.1922 213.226 65.1928C213.226 65.1931 213.227 65.1935 213.227 65.1936C213.228 65.194 213.229 65.1944 215.736 60.8688ZM210.451 73.2165L219.27 64.4061L212.203 57.3316L203.384 66.1421L210.451 73.2165ZM232.463 82.628C221.259 82.7967 213.653 73.9842 211.654 68.0766L202.181 71.282C205.149 80.0507 215.876 92.8788 232.614 92.6269L232.463 82.628ZM209.304 44.2274L207.355 57.5015L217.248 58.9545L219.198 45.6804L209.304 44.2274ZM205.029 48.4057L213.383 49.878L215.119 40.0298L206.764 38.5575L205.029 48.4057ZM215.706 54.5658C213.172 52.211 210.55 48.5821 210.884 43.8318L200.909 43.1314C200.267 52.2629 205.397 58.6363 208.897 61.8902L215.706 54.5658Z" fill="black" mask="url(#path-9-outside-4_78_1024)"/>
</g>
<defs>
<filter id="filter0_d_78_1024" x="0.257812" y="0.388184" width="83.7173" height="111.055" filterUnits="userSpaceOnUse" color-interpolation-filters="sRGB">
<feFlood flood-opacity="0" result="BackgroundImageFix"/>
<feColorMatrix in="SourceAlpha" type="matrix" values="0 0 0 0 0 0 0 0 0 0 0 0 0 0 0 0 0 0 127 0" result="hardAlpha"/>
<feOffset dx="-5" dy="5"/>
<feComposite in2="hardAlpha" operator="out"/>
<feColorMatrix type="matrix" values="0 0 0 0 0 0 0 0 0 0 0 0 0 0 0 0 0 0 1 0"/>
<feBlend mode="normal" in2="BackgroundImageFix" result="effect1_dropShadow_78_1024"/>
<feBlend mode="normal" in="SourceGraphic" in2="effect1_dropShadow_78_1024" result="shape"/>
</filter>
<filter id="filter1_d_78_1024" x="53.9136" y="12.517" width="78.6814" height="102.872" filterUnits="userSpaceOnUse" color-interpolation-filters="sRGB">
<feFlood flood-opacity="0" result="BackgroundImageFix"/>
<feColorMatrix in="SourceAlpha" type="matrix" values="0 0 0 0 0 0 0 0 0 0 0 0 0 0 0 0 0 0 127 0" result="hardAlpha"/>
<feOffset dx="-5" dy="5"/>
<feComposite in2="hardAlpha" operator="out"/>
<feColorMatrix type="matrix" values="0 0 0 0 0 0 0 0 0 0 0 0 0 0 0 0 0 0 1 0"/>
<feBlend mode="normal" in2="BackgroundImageFix" result="effect1_dropShadow_78_1024"/>
<feBlend mode="normal" in="SourceGraphic" in2="effect1_dropShadow_78_1024" result="shape"/>
</filter>
<filter id="filter2_d_78_1024" x="107.052" y="6.65173" width="71.447" height="77.912" filterUnits="userSpaceOnUse" color-interpolation-filters="sRGB">
<feFlood flood-opacity="0" result="BackgroundImageFix"/>
<feColorMatrix in="SourceAlpha" type="matrix" values="0 0 0 0 0 0 0 0 0 0 0 0 0 0 0 0 0 0 127 0" result="hardAlpha"/>
<feOffset dx="-5" dy="5"/>
<feComposite in2="hardAlpha" operator="out"/>
<feColorMatrix type="matrix" values="0 0 0 0 0 0 0 0 0 0 0 0 0 0 0 0 0 0 1 0"/>
<feBlend mode="normal" in2="BackgroundImageFix" result="effect1_dropShadow_78_1024"/>
<feBlend mode="normal" in="SourceGraphic" in2="effect1_dropShadow_78_1024" result="shape"/>
</filter>
<filter id="filter3_d_78_1024" x="151.756" y="18.9203" width="65.5457" height="93.8275" filterUnits="userSpaceOnUse" color-interpolation-filters="sRGB">
<feFlood flood-opacity="0" result="BackgroundImageFix"/>
<feColorMatrix in="SourceAlpha" type="matrix" values="0 0 0 0 0 0 0 0 0 0 0 0 0 0 0 0 0 0 127 0" result="hardAlpha"/>
<feOffset dx="-5" dy="5"/>
<feComposite in2="hardAlpha" operator="out"/>
<feColorMatrix type="matrix" values="0 0 0 0 0 0 0 0 0 0 0 0 0 0 0 0 0 0 1 0"/>
<feBlend mode="normal" in2="BackgroundImageFix" result="effect1_dropShadow_78_1024"/>
<feBlend mode="normal" in="SourceGraphic" in2="effect1_dropShadow_78_1024" result="shape"/>
</filter>
<filter id="filter4_d_78_1024" x="195.854" y="21.9623" width="68.8896" height="75.6682" filterUnits="userSpaceOnUse" color-interpolation-filters="sRGB">
<feFlood flood-opacity="0" result="BackgroundImageFix"/>
<feColorMatrix in="SourceAlpha" type="matrix" values="0 0 0 0 0 0 0 0 0 0 0 0 0 0 0 0 0 0 127 0" result="hardAlpha"/>
<feOffset dx="-5" dy="5"/>
<feComposite in2="hardAlpha" operator="out"/>
<feColorMatrix type="matrix" values="0 0 0 0 0 0 0 0 0 0 0 0 0 0 0 0 0 0 1 0"/>
<feBlend mode="normal" in2="BackgroundImageFix" result="effect1_dropShadow_78_1024"/>
<feBlend mode="normal" in="SourceGraphic" in2="effect1_dropShadow_78_1024" result="shape"/>
</filter>
</defs>
</svg>
